<svg xmlns="http://www.w3.org/2000/svg" xmlns:xlink="http://www.w3.org/1999/xlink" version="1.1">

    <symbol id="compass-icon" viewBox="142.8 72.8 414.4 414.4">
        <g>
            <path d="m350 72.801c-114.43 0-207.2 92.766-207.2 207.2s92.766 207.2 207.2 207.2 207.2-92.766 207.2-207.2-92.766-207.2-207.2-207.2zm99.051 108.15-63.352 134.75-134.75 63.352 63.352-134.75zm-99.051 76.652c-5.7344 0-11.551 2.1016-15.926 6.4766-8.7461 8.7461-8.7461 23.102 0 31.852 8.7461 8.7461 23.102 8.7461 31.852 0 8.7461-8.7461 8.7461-23.102 0-31.852-4.375-4.3789-10.191-6.4766-15.926-6.4766z"/>
        </g>
    </symbol>

    <symbol id="overview-icon" viewBox="70 0 560 560">
        <g>
            <path d="m285.83 186.67h-175c-10.828 0-21.215-4.3047-28.871-11.961-7.6602-7.6562-11.961-18.043-11.961-28.875v-105c0-10.828 4.3008-21.215 11.961-28.871 7.6562-7.6602 18.043-11.961 28.871-11.961h175c10.832 0 21.219 4.3008 28.875 11.961 7.6562 7.6562 11.961 18.043 11.961 28.871v105c0 10.832-4.3047 21.219-11.961 28.875s-18.043 11.961-28.875 11.961zm-175-151.67c-3.2188 0-5.832 2.6133-5.832 5.832v105c0 1.5469 0.61328 3.0312 1.707 4.125s2.5781 1.7109 4.125 1.7109h175c1.5469 0 3.0312-0.61719 4.125-1.7109s1.7109-2.5781 1.7109-4.125v-105c0-1.5469-0.61719-3.0312-1.7109-4.125s-2.5781-1.707-4.125-1.707z"/>
            <path d="m285.83 560h-175c-10.828 0-21.215-4.3008-28.871-11.961-7.6602-7.6562-11.961-18.043-11.961-28.871v-245c0-10.832 4.3008-21.219 11.961-28.875 7.6562-7.6562 18.043-11.961 28.871-11.961h175c10.832 0 21.219 4.3047 28.875 11.961s11.961 18.043 11.961 28.875v245c0 10.828-4.3047 21.215-11.961 28.871-7.6562 7.6602-18.043 11.961-28.875 11.961zm-175-291.67c-3.2188 0-5.832 2.6133-5.832 5.8359v245c0 1.5469 0.61328 3.0312 1.707 4.125s2.5781 1.707 4.125 1.707h175c1.5469 0 3.0312-0.61328 4.125-1.707s1.7109-2.5781 1.7109-4.125v-245c0-1.5469-0.61719-3.0312-1.7109-4.125s-2.5781-1.7109-4.125-1.7109z"/>
            <path d="m589.17 560h-175c-10.832 0-21.219-4.3008-28.875-11.961-7.6562-7.6562-11.961-18.043-11.961-28.871v-105c0-10.832 4.3047-21.219 11.961-28.875s18.043-11.961 28.875-11.961h175c10.828 0 21.215 4.3047 28.871 11.961 7.6602 7.6562 11.961 18.043 11.961 28.875v105c0 10.828-4.3008 21.215-11.961 28.871-7.6562 7.6602-18.043 11.961-28.871 11.961zm-175-151.67c-3.2227 0-5.8359 2.6133-5.8359 5.8359v105c0 1.5469 0.61719 3.0312 1.7109 4.125s2.5781 1.707 4.125 1.707h175c1.5469 0 3.0312-0.61328 4.125-1.707s1.707-2.5781 1.707-4.125v-105c0-1.5469-0.61328-3.0312-1.707-4.125s-2.5781-1.7109-4.125-1.7109z"/>
            <path d="m589.17 326.67h-175c-10.832 0-21.219-4.3047-28.875-11.961s-11.961-18.043-11.961-28.875v-245c0-10.828 4.3047-21.215 11.961-28.871 7.6562-7.6602 18.043-11.961 28.875-11.961h175c10.828 0 21.215 4.3008 28.871 11.961 7.6602 7.6562 11.961 18.043 11.961 28.871v245c0 10.832-4.3008 21.219-11.961 28.875-7.6562 7.6562-18.043 11.961-28.871 11.961zm-175-291.67c-3.2227 0-5.8359 2.6133-5.8359 5.832v245c0 1.5469 0.61719 3.0312 1.7109 4.125s2.5781 1.7109 4.125 1.7109h175c1.5469 0 3.0312-0.61719 4.125-1.7109s1.707-2.5781 1.707-4.125v-245c0-1.5469-0.61328-3.0312-1.707-4.125s-2.5781-1.707-4.125-1.707z"/>
        </g>
    </symbol>

    <symbol id="recruiting-icon" viewBox="70 37.9 559.99 484.2">
        <g>
            <path d="m623.22 509.34c-11.031 14.324-31.566 16.984-45.863 5.9805l-17.395-13.383 39.883-51.832 17.387 13.379c14.316 11.012 16.988 31.547 5.9883 45.855zm-32.754-66.449-39.891 51.832-134.16-103.24c-36.785 35.02-86.562 56.52-141.36 56.52-113.25 0-205.05-91.805-205.05-205.05 0-113.24 91.805-205.05 205.05-205.05s205.05 91.805 205.05 205.05c0 34.883-8.7188 67.723-24.086 96.48zm-156.07-199.94c0-88.008-71.344-159.36-159.36-159.36-88.008 0-159.36 71.344-159.36 159.36 0.003906 88.012 71.355 159.36 159.36 159.36 88.004 0 159.35-71.344 159.35-159.36zm-53.34 83.059v-9.5977c0-40.164-32.273-72.711-72.438-72.711l-63.164-0.015625c-40.164 0-72.723 32.562-72.723 72.727v14.973c11.445 13.301 25.457 24.336 41.254 32.336v-52.461h12.656v58.07c14.926 5.7109 31.121 8.8438 48.055 8.8438 18.602 0 36.328-3.7734 52.445-10.613l0.003906-56.301h12.656v50.133c16.043-8.8945 30.078-20.973 41.254-35.383zm-104.17-91.094c33.969 0 61.512-27.535 61.512-61.504s-27.539-61.504-61.512-61.504c-33.969 0-61.504 27.535-61.504 61.504s27.535 61.504 61.504 61.504z"/>
        </g>
    </symbol>

    <symbol id="employee-icon" viewBox="142.8 14 414.4 532.56">
        <g>
            <path d="m350 301.84c-114.24 0-207.2 92.961-207.2 207.2v15.121c0 12.32 10.078 22.398 22.398 22.398h369.6c12.32 0 22.398-10.078 22.398-22.398v-15.121c0-114.8-92.961-207.2-207.2-207.2z"/>
            <path d="m476 140c0 69.586-56.414 126-126 126s-126-56.414-126-126 56.414-126 126-126 126 56.414 126 126"/>
        </g>
    </symbol>

    <symbol id="division-icon" viewBox="116.67 46.67 466.67 466.66">
        <g>
            <path d="m303.33 46.668h93.332c12.887 0 23.332 12.887 23.332 23.332v93.332c0 12.887-10.445 23.332-23.332 23.332h-93.332c-12.887 0-23.332-12.887-23.332-23.332v-93.332c0-12.887 10.445-23.332 23.332-23.332z"/>
            <path d="m140 373.33h93.332c12.887 0 23.332 12.887 23.332 23.332v93.332c0 12.887-10.445 23.332-23.332 23.332h-93.332c-12.887 0-23.332-12.887-23.332-23.332v-93.332c0-12.887 10.445-23.332 23.332-23.332z"/>
            <path d="m303.33 373.33h93.332c12.887 0 23.332 12.887 23.332 23.332v93.332c0 12.887-10.445 23.332-23.332 23.332h-93.332c-12.887 0-23.332-12.887-23.332-23.332v-93.332c0-12.887 10.445-23.332 23.332-23.332z"/>
            <path d="m466.67 373.33h93.332c12.887 0 23.332 12.887 23.332 23.332v93.332c0 12.887-10.445 23.332-23.332 23.332h-93.332c-12.887 0-23.332-12.887-23.332-23.332v-93.332c0-12.887 10.445-23.332 23.332-23.332z"/>
            <path d="m186.67 350c6.1875 0 12.121-2.457 16.496-6.8359 4.3789-4.375 6.8359-10.309 6.8359-16.496v-23.336h116.67v23.336c0 8.3359 4.4453 16.039 11.664 20.207s16.117 4.168 23.336 0 11.664-11.871 11.664-20.207v-23.336h116.67v23.336c0 8.3359 4.4492 16.039 11.668 20.207s16.113 4.168 23.332 0 11.668-11.871 11.668-20.207v-46.668c0-6.1875-2.4609-12.125-6.8359-16.5s-10.309-6.832-16.5-6.832h-140v-23.336c0-8.3359-4.4453-16.039-11.664-20.207s-16.117-4.168-23.336 0-11.664 11.871-11.664 20.207v23.332l-140 0.003907c-6.1914 0-12.125 2.457-16.5 6.832s-6.8359 10.312-6.8359 16.5v46.668c0 6.1875 2.4609 12.121 6.8359 16.496 4.375 4.3789 10.309 6.8359 16.5 6.8359z"/>
        </g>
    </symbol>

    <symbol id="payroll-icon" viewBox="140 0 420.01 560.01">
        <g>
            <path d="m546.33 107.01-93.332-93.332c-8.7539-8.7539-20.652-13.676-32.996-13.676h-233.33c-25.762 0-46.668 20.906-46.668 46.668v466.67c0 25.762 20.906 46.668 46.668 46.668h326.67c25.762 0 46.668-20.906 46.668-46.668l-0.003906-373.34c0-12.344-4.9219-24.242-13.672-32.992zm-126.33-60.34 93.332 93.332h-93.332zm93.332 466.66h-326.66v-466.66h186.67v93.332c0 25.762 20.906 46.668 46.668 46.668h93.332z"/>
            <path d="m233.33 256.67v210h233.33v-210zm23.336 23.332h116.67v23.332h-116.67zm0 46.668h116.67v23.332h-116.67zm140 23.332v-23.332h46.668v23.332zm46.664 23.332v23.332h-46.668v-23.332zm-186.66 0h116.67v23.332l-116.67 0.003907zm0 70v-23.332h116.67v23.332zm140 0v-23.332h46.668v23.332zm46.664-140h-46.668v-23.332h46.668z"/>
            <path d="m291.67 186.67h-23.332c-6.418 0-11.668 5.25-11.668 11.664 0 6.418 5.25 11.668 11.664 11.668h11.668v11.668c0 6.4141 5.25 11.664 11.668 11.664 6.4141 0 11.664-5.25 11.664-11.664v-13.816c13.559-4.8281 23.332-17.688 23.332-32.852 0.003907-19.273-15.699-35-34.996-35-6.418 0-11.668-5.25-11.668-11.668 0-6.4141 5.25-11.664 11.668-11.664h23.332c6.418 0 11.668-5.25 11.668-11.668s-5.25-11.668-11.668-11.668h-11.668v-11.664c0-6.418-5.25-11.668-11.664-11.668-6.418 0-11.668 5.25-11.668 11.668v13.812c-13.559 4.8281-23.332 17.688-23.332 32.852 0 19.32 15.703 35 35 35 6.4141 0 11.664 5.25 11.664 11.668s-5.25 11.668-11.664 11.668z"/>
        </g>
    </symbol>

    <symbol id="statistics-icon" viewBox="70 50.4 560 459.2">
        <g>
            <path d="m170.8 484.4c0 13.859-11.34 25.199-25.199 25.199h-50.398c-13.863 0.003906-25.203-11.336-25.203-25.199v-156.8c0-13.859 11.34-25.199 25.199-25.199h50.398c13.859 0 25.199 11.34 25.199 25.199z"/>
            <path d="m322 484.4c0 13.859-11.34 25.199-25.199 25.199h-50.398c-13.859 0-25.199-11.34-25.199-25.199v-280c0-13.859 11.34-25.199 25.199-25.199h50.398c13.859 0 25.199 11.34 25.199 25.199z"/>
            <path d="m478.8 484.4c0 13.859-11.34 25.199-25.199 25.199h-50.398c-13.859 0-25.199-11.34-25.199-25.199v-408.8c0-13.859 11.34-25.199 25.199-25.199h50.398c13.859 0 25.199 11.34 25.199 25.199z"/>
            <path d="m630 484.4c0 13.859-11.34 25.199-25.199 25.199h-50.398c-13.859 0-25.199-11.34-25.199-25.199v-257.6c0-13.859 11.34-25.199 25.199-25.199h50.398c13.859 0 25.199 11.34 25.199 25.199z"/>
        </g>
    </symbol>

    <symbol id="data-icon" viewBox="69.99 53.85 560.01 452.31">
        <g>
            <path d="m628.06 198.15c-2.0469-2.8008-5.2773-4.5234-8.832-4.5234h-65.797v218.28l75.922-203.85c1.1836-3.2266 0.75391-6.9961-1.293-9.9062z"/>
            <path d="m494.3 88.848h-210.75l-22.293-23.586c-6.7852-7.2148-16.262-11.414-26.059-11.414h-55.68c-9.6914 0-19.277 4.1992-26.062 11.414l-22.289 23.586h-28.863c-17.77 0-32.309 14.969-32.309 33.492v39.199h461.89v-33.602c0.003906-21.539-16.906-39.09-37.582-39.09z"/>
            <path d="m69.996 469.43c0 20.246 15.832 36.723 35.324 36.723h389.63c20.355 0 36.938-17.23 36.938-38.445v-284.63h-461.89z"/>
        </g>
    </symbol>

    <symbol id="calendar-icon" viewBox="89.03 14 521.37 532">
        <g>
            <path d="m565.6 58.801h-47.602v34.16c0 29.68-24.078 53.762-53.762 53.762h-9.5195c-29.68 0-53.762-24.078-53.762-53.762v-34.16h-101.36v34.16c0 29.68-24.078 53.762-53.762 53.762h-10.078c-29.68 0-53.762-24.078-53.762-53.762v-34.16h-47.602c-25.199 0-45.359 20.16-45.359 45.359v396.48c0 25.199 20.16 45.359 45.359 45.359h430.64c25.199 0 45.359-20.16 45.359-45.359v-396.48c0.5625-25.199-19.598-45.359-44.797-45.359zm-22.961 396.48c0 12.32-10.078 22.398-22.398 22.398h-340.48c-12.32 0-22.398-10.078-22.398-22.398l-0.003906-198.24c0-12.879 10.078-22.398 22.398-22.398h339.92c12.32 0 22.398 10.078 22.398 22.398v198.24z"/>
            <path d="m236.32 119.28h9.5195c14.559 0 26.32-11.762 26.32-26.32v-50.398c0-15.68-12.879-28.559-28.559-28.559h-5.0391c-15.68 0-28.559 12.879-28.559 28.559v50.398c-0.5625 14.559 11.195 26.32 26.316 26.32z"/>
            <path d="m454.16 119.28h9.5195c14.559 0 26.32-11.762 26.32-26.32v-50.398c0-15.68-12.879-28.559-28.559-28.559h-5.0391c-15.68 0-28.559 12.879-28.559 28.559v50.398c-0.003906 14.559 11.758 26.32 26.316 26.32z"/>
            <path d="m260.4 273.84h-48.719c-7.8398 0-14.559 6.7188-14.559 14.559v35.84c0 7.8398 6.7188 14.559 14.559 14.559l48.719 0.003906c7.8398 0 14.559-6.7188 14.559-14.559v-35.84c0.003907-7.8438-6.1562-14.562-14.559-14.562z"/>
            <path d="m374.64 273.84h-48.719c-7.8398 0-14.559 6.7188-14.559 14.559v35.84c0 7.8398 6.7188 14.559 14.559 14.559h48.719c7.8398 0 14.559-6.7188 14.559-14.559v-35.84c0-7.8398-6.7188-14.559-14.559-14.559z"/>
            <path d="m488.32 273.84h-48.719c-7.8398 0-14.559 6.7188-14.559 14.559v35.84c0 7.8398 6.7188 14.559 14.559 14.559h48.719c7.8398 0 14.559-6.7188 14.559-14.559v-35.84c0-7.8398-6.1602-14.559-14.559-14.559z"/>
            <path d="m260.4 372.96h-48.719c-7.8398 0-14.559 6.7188-14.559 14.559v35.84c0 7.8398 6.7188 14.559 14.559 14.559l48.719 0.003906c7.8398 0 14.559-6.7188 14.559-14.559v-35.84c0.003907-7.8438-6.1562-14.562-14.559-14.562z"/>
            <path d="m374.64 372.96h-48.719c-7.8398 0-14.559 6.7188-14.559 14.559v35.84c0 7.8398 6.7188 14.559 14.559 14.559h48.719c7.8398 0 14.559-6.7188 14.559-14.559v-35.84c0-7.8398-6.7188-14.559-14.559-14.559z"/>
            <path d="m488.32 372.96h-48.719c-7.8398 0-14.559 6.7188-14.559 14.559v35.84c0 7.8398 6.7188 14.559 14.559 14.559h48.719c7.8398 0 14.559-6.7188 14.559-14.559v-35.84c0-7.8398-6.1602-14.559-14.559-14.559z"/>
        </g>
    </symbol>

    <symbol id="chat-icon" viewBox="105 81.67 490 396.67">
        <g>
            <path d="m431.67 221.67v35c0 15.469-6.1484 30.309-17.082 41.254-10.941 10.93-25.781 17.078-41.254 17.078h-81.664v81.668c0 9.2852 3.6836 18.188 10.254 24.742 6.5547 6.5703 15.457 10.258 24.746 10.258h200.34c3.0898 0 6.0547 1.2227 8.2461 3.418l39.832 39.828c3.3359 3.3359 8.3516 4.3398 12.715 2.5312 4.3516-1.8086 7.1992-6.0664 7.1992-10.777v-210c0-9.2891-3.6875-18.191-10.254-24.746-6.5586-6.5703-15.461-10.254-24.746-10.254z" fill-rule="evenodd"/>
            <path d="m408.33 256.67c0 9.2852-3.6836 18.188-10.254 24.742-6.5547 6.5703-15.457 10.258-24.746 10.258h-200.34c-3.0898 0-6.0547 1.2227-8.2461 3.418l-39.832 39.828c-3.3359 3.3359-8.3516 4.3398-12.715 2.5312-4.3516-1.8086-7.1992-6.0664-7.1992-10.777v-210c0-9.2891 3.6875-18.191 10.254-24.746 6.5586-6.5703 15.461-10.254 24.746-10.254h233.33c9.2891 0 18.191 3.6836 24.746 10.254 6.5703 6.5547 10.254 15.457 10.254 24.746zm-245-11.668h93.336c6.4375 0 11.664-5.2266 11.664-11.668 0-6.4375-5.2266-11.664-11.664-11.664h-93.336c-6.4375 0-11.664 5.2266-11.664 11.664 0 6.4414 5.2266 11.668 11.664 11.668zm0-46.668h186.67c6.4414 0 11.668-5.2266 11.668-11.664 0-6.4414-5.2266-11.668-11.668-11.668h-186.67c-6.4375 0-11.664 5.2266-11.664 11.668 0 6.4375 5.2266 11.664 11.664 11.664zm0-46.664h186.67c6.4414 0 11.668-5.2266 11.668-11.668s-5.2266-11.668-11.668-11.668h-186.67c-6.4375 0-11.664 5.2266-11.664 11.668s5.2266 11.668 11.664 11.668z" fill-rule="evenodd"/>
        </g>
    </symbol>

    <symbol id="question-icon" viewBox="84 14 532 531.99">
        <g>
            <path d="m350 14c-146.93 0-266 119.04-266 265.96 0 146.93 119.07 266.03 266 266.03s266-119.1 266-266.03c0-146.93-119.07-265.96-266-265.96zm0.19922 454.29c-27.867 0-50.535-22.699-50.535-50.535 0-27.898 22.664-50.535 50.535-50.535 27.863 0 50.535 22.637 50.535 50.535 0 27.836-22.672 50.535-50.535 50.535zm57.969-171.61c-1.9727 0.92187-5.1328 2.0391-8.7539 3.293-4.3086 1.4453-10.859 4.4727-12.93 6.3164-3.1562 4.7383-2.6289 11.512-3.1211 21.844 0 12.898-4.4102 19.215-31.719 19.215h-10.328c-26.812 0-24.84-9.2773-24.84-39.676v1.707c0-39.414 10.859-56.914 35.863-63.625l4.7031-2.1055c24.348-6.3828 48.824-7.8984 48.824-41.457 0-31.387-39.414-32.965-46.422-32.965-36.125 0-43.328 15.266-45.402 26.715-3.1914 18.094-9.4414 25.988-36.289 25.988-10.199-0.45703-22.602 0-29.281-10.855-3.0586-5.0039-4.4062-7.6992-4.4062-20.137 0-57.445 72.48-79.422 109.46-79.422h3.4531c70.145 0 119.1 38.957 119.1 101.99-0.007812 35.996-24.75 63.105-67.914 83.176z"/>
        </g>
    </symbol>

    <symbol id="settings-icon" viewBox="168.08 81.67 363.84 396.66">
        <g>
            <path d="m336 478.33h30.336c11.664 0 21-9.332 23.332-23.332l2.332-11.668c4.3789-21.879 19.012-31.449 26.594-36.402 0.5-0.32813 0.97266-0.63672 1.4062-0.92969 1.168-1.168 2.3359-1.75 3.5-2.332 1.168-0.58594 2.3359-1.168 3.5-2.3359 1.0586-0.35156 2.3281-0.86328 3.793-1.4531 8.2461-3.3242 22.715-9.1562 40.543-3.2109l11.664 4.6641c11.668 4.668 25.668 0 32.668-9.332 4.668-7 9.332-16.332 14-25.668 4.668-11.664 0-25.664-9.332-32.664l-9.3359-7c-18.664-14-18.664-32.668-18.664-42v-9.3359c0-9.332 2.332-28 18.664-42l9.3359-7c11.664-9.332 14-21 9.332-32.664-4.668-9.3359-9.332-18.668-14-25.668-7-11.668-21-14-32.668-9.332l-11.664 4.6641c-21 9.3359-39.668 0-44.336-4.6641-1.1641-1.168-2.332-1.75-3.5-2.3359-1.1641-0.58203-2.332-1.1641-3.5-2.332-0.24219-0.16406-0.50391-0.33594-0.77734-0.51953-7.5117-4.9805-24.969-16.551-27.223-36.812l-2.332-11.668c-2.332-11.668-11.668-23.332-23.332-23.332h-30.336c-11.664 0-21 9.332-23.332 23.332l-2.332 11.668c-4.375 21.879-19.012 31.449-26.59 36.402-0.50391 0.33203-0.97266 0.64063-1.4102 0.92969-1.168 1.168-2.332 1.75-3.5 2.332-1.168 0.58594-2.332 1.168-3.5 2.3359-7 4.6641-25.668 14-46.668 4.6641l-9.332-4.6641c-11.668-4.668-25.668 0-32.668 9.332s-11.664 16.332-16.332 25.668c-4.668 11.664 0 23.332 9.332 32.664l9.3359 7c18.664 14 18.664 32.668 18.664 42v9.3359c0 9.332-2.332 28-18.664 42l-9.3359 7c-11.664 9.332-14 21-9.332 32.664 1.4375 5.75 4.6445 10.609 7.9844 15.68 2.0859 3.1602 4.2227 6.4023 6.0156 9.9883 7 11.668 21 14 32.668 9.332l11.664-4.6641c21-9.3359 39.668 0 46.668 4.6641 1.168 1.168 2.332 1.75 3.5 2.3359 1.168 0.58203 2.332 1.1641 3.5 2.332 0.24609 0.16406 0.50781 0.33594 0.78125 0.51953 7.5117 4.9805 24.969 16.551 27.219 36.812l2.332 11.668c2.332 11.668 11.668 23.332 23.332 23.332zm14.004-268.33c-39.109 0-70 30.891-70 70s30.891 70 70 70 70-30.891 70-70-30.891-70-70-70z" fill-rule="evenodd"/>
        </g>
    </symbol>

    <symbol id="arrow-icon" viewBox="119.83 167.76 460.35 224.5">
        <g>
            <path d="m351.93 392.17c4.7266-0.41016 9.1992-2.3086 12.773-5.4258l207.2-179.2c4.7148-3.832 7.6719-9.4102 8.1953-15.461 0.51953-6.0508-1.4336-12.055-5.4219-16.633-3.9883-4.582-9.6641-7.3477-15.73-7.6641s-12 1.8398-16.441 5.9805l-192.5 166.43-192.5-166.43c-4.4414-4.1406-10.375-6.2969-16.441-5.9805s-11.742 3.082-15.73 7.6641c-3.9883 4.5781-5.9414 10.582-5.4219 16.633 0.52344 6.0508 3.4805 11.629 8.1953 15.461l207.2 179.2c4.5781 3.9883 10.578 5.9453 16.625 5.4258z"/>
        </g>
    </symbol>

    <symbol id="group-icon" viewBox="116.67 46.67 466.67 466.66">
        <g>
            <path d="m303.33 46.668h93.332c12.887 0 23.332 12.887 23.332 23.332v93.332c0 12.887-10.445 23.332-23.332 23.332h-93.332c-12.887 0-23.332-12.887-23.332-23.332v-93.332c0-12.887 10.445-23.332 23.332-23.332z"/>
            <path d="m140 373.33h93.332c12.887 0 23.332 12.887 23.332 23.332v93.332c0 12.887-10.445 23.332-23.332 23.332h-93.332c-12.887 0-23.332-12.887-23.332-23.332v-93.332c0-12.887 10.445-23.332 23.332-23.332z"/>
            <path d="m303.33 373.33h93.332c12.887 0 23.332 12.887 23.332 23.332v93.332c0 12.887-10.445 23.332-23.332 23.332h-93.332c-12.887 0-23.332-12.887-23.332-23.332v-93.332c0-12.887 10.445-23.332 23.332-23.332z"/>
            <path d="m466.67 373.33h93.332c12.887 0 23.332 12.887 23.332 23.332v93.332c0 12.887-10.445 23.332-23.332 23.332h-93.332c-12.887 0-23.332-12.887-23.332-23.332v-93.332c0-12.887 10.445-23.332 23.332-23.332z"/>
            <path d="m186.67 350c6.1875 0 12.121-2.457 16.496-6.8359 4.3789-4.375 6.8359-10.309 6.8359-16.496v-23.336h116.67v23.336c0 8.3359 4.4453 16.039 11.664 20.207s16.117 4.168 23.336 0 11.664-11.871 11.664-20.207v-23.336h116.67v23.336c0 8.3359 4.4492 16.039 11.668 20.207s16.113 4.168 23.332 0 11.668-11.871 11.668-20.207v-46.668c0-6.1875-2.4609-12.125-6.8359-16.5s-10.309-6.832-16.5-6.832h-140v-23.336c0-8.3359-4.4453-16.039-11.664-20.207s-16.117-4.168-23.336 0-11.664 11.871-11.664 20.207v23.332l-140 0.003907c-6.1914 0-12.125 2.457-16.5 6.832s-6.8359 10.312-6.8359 16.5v46.668c0 6.1875 2.4609 12.121 6.8359 16.496 4.375 4.3789 10.309 6.8359 16.5 6.8359z"/>
        </g>
    </symbol>

    <symbol id="arrow-right-icon" viewBox="70 48.57 560.03 461.28">
        <g>
            <path d="m616.79 246.96-184.35-184.35c-8.3828-8.8203-19.969-13.883-32.137-14.039-12.164-0.15625-23.879 4.6016-32.484 13.203-8.6055 8.5977-13.379 20.309-13.23 32.473 0.14844 12.164 5.1992 23.758 14.012 32.145l108.97 108.81h-362.43c-16.125 0-31.027 8.6055-39.09 22.57-8.0625 13.965-8.0625 31.168 0 45.133s22.965 22.57 39.09 22.57h361.42l-107.96 108.14c-10.926 11.492-15.016 27.875-10.777 43.156 4.2383 15.281 16.184 27.215 31.469 31.441 15.281 4.2227 31.664 0.11719 43.148-10.816l184.35-184.35c8.4961-8.4453 13.254-19.941 13.215-31.918 0.03125-0.375 0.03125-0.75 0-1.1211 0.027344-0.37109 0.027344-0.74609 0-1.1211-0.003906-11.969-4.7578-23.449-13.215-31.918z"/>
        </g>
    </symbol>

    <symbol id="search-icon" viewBox="99.83 29.83 499.12 499.03">
        <g>
            <path d="m464.34 358.34 127.19 127.19c9.8945 9.8945 9.9258 25.906-0.082032 35.918-9.9414 9.9375-26.203 9.7969-35.918 0.082032l-127.19-127.19c-79.887 62.172-195.44 56.543-268.87-16.887-79.523-79.523-79.523-208.46 0-287.98 79.527-79.523 208.46-79.523 287.98 0 73.43 73.43 79.059 188.98 16.887 268.87zm-52.883-16.883c59.645-59.645 59.645-156.34 0-215.99-59.645-59.645-156.34-59.645-215.99 0-59.645 59.645-59.645 156.34 0 215.99 59.645 59.645 156.34 59.645 215.99 0z" fill-rule="evenodd"/>
        </g>
    </symbol>

    <symbol id="persons-icon" viewBox="74.44 90.07 551.26 379.75">
        <g>
            <path d="m482.42 307.77c35-17.383 59.266-53.082 59.266-94.734 0-58.566-47.484-105.93-105.93-105.93-11.434 0-22.168 2.2148-32.434 5.6016 19.602 25.898 31.383 58.102 31.383 93.102 0 31.383-9.4492 60.551-25.551 84.934 59.148 22.051 118.07 66.617 118.07 127.29v20.648c0 6.3008 5.1328 11.551 11.551 11.551h75.367c6.418 0 11.551-5.1328 11.551-11.551v-35.934c0-52.5-90.066-94.965-142.45-94.965zm-163.57 6.6523c44.566-16.102 76.535-58.566 76.535-108.73 0-63.816-51.801-115.62-115.62-115.62-63.934 0-115.73 51.684-115.73 115.62 0 50.051 31.852 92.633 76.535 108.73h-11.082c-57.051 0-155.05 46.316-155.05 103.6v40.25c0 6.3008 5.1328 11.551 11.551 11.551h390.48c6.418 0 11.551-5.1328 11.551-11.551v-40.25c0-57.285-98-103.6-155.05-103.6z"/>
        </g>
    </symbol>

    <symbol id="more-icon" viewBox="305.2 67.2 89.6 425.6">
        <g>
            <path d="m394.8 112c0-24.742-20.059-44.801-44.801-44.801s-44.801 20.059-44.801 44.801 20.059 44.801 44.801 44.801 44.801-20.059 44.801-44.801zm0 168c0-24.742-20.059-44.801-44.801-44.801s-44.801 20.059-44.801 44.801 20.059 44.801 44.801 44.801 44.801-20.059 44.801-44.801zm0 168c0-24.742-20.059-44.801-44.801-44.801s-44.801 20.059-44.801 44.801 20.059 44.801 44.801 44.801 44.801-20.059 44.801-44.801z"/>
        </g>
    </symbol>

    <symbol id="heart-icon" viewBox="68.13 32.74 563.76 494.53">
        <g>
            <path d="m585.7 78.941c-30.832-30.742-71.105-46.203-111.46-46.203-40.363 0-80.723 15.461-111.56 46.203l-12.676 12.676-12.676-12.676c-30.742-30.742-71.195-46.203-111.46-46.203-40.453 0-80.723 15.461-111.56 46.203-61.574 61.578-61.574 161.45 0 223.02l12.676 12.676v0.089844l205.27 205.19c9.8047 9.8008 25.699 9.8008 35.504-0.003907l217.95-217.95c61.57-61.574 61.57-161.45-0.003906-223.02z"/>
        </g>
    </symbol>

    <symbol id="message-icon" viewBox="120.4 73.92 459.2 412.16">
        <g>
            <path d="m193.2 404.32h91.281l44.238 70c4.4805 7.2812 12.32 11.762 20.719 11.762s16.238-4.4805 20.719-11.762l44.238-70h92.406c40.32 0 72.801-32.48 72.801-72.801v-184.8c0-40.32-32.48-72.801-72.801-72.801l-313.6 0.003906c-40.32 0-72.801 32.48-72.801 72.801v184.8c0 40.316 33.043 72.797 72.801 72.797zm17.922-253.68h276.08v33.602l-276.08-0.003907zm0 70h276.08v33.602l-276.08-0.003907zm0 70h155.68v33.602l-155.68-0.003907z"/>
        </g>
    </symbol>

    <symbol id="cards-icon" viewBox="84 14 532 532">
        <g>
            <path d="m283.5 14h-166.25c-18.281 0-33.25 14.938-33.25 33.25v166.25c0 18.246 14.969 33.25 33.25 33.25h166.25c18.281 0 33.25-15.004 33.25-33.25v-166.25c0-18.312-14.969-33.25-33.25-33.25z"/>
            <path d="m582.75 14h-166.25c-18.281 0-33.25 14.938-33.25 33.25v166.25c0 18.246 14.969 33.25 33.25 33.25h166.25c18.281 0 33.25-15.004 33.25-33.25v-166.25c0-18.312-14.969-33.25-33.25-33.25z"/>
            <path d="m283.5 313.25h-166.25c-18.281 0-33.25 14.938-33.25 33.25v166.25c0 18.246 14.969 33.25 33.25 33.25h166.25c18.281 0 33.25-15.004 33.25-33.25v-166.25c0-18.312-14.969-33.25-33.25-33.25z"/>
            <path d="m582.75 313.25h-166.25c-18.281 0-33.25 14.938-33.25 33.25v166.25c0 18.246 14.969 33.25 33.25 33.25h166.25c18.281 0 33.25-15.004 33.25-33.25v-166.25c0-18.312-14.969-33.25-33.25-33.25z"/>
        </g>
    </symbol>

    <symbol id="rows-icon" viewBox="59.5 84 605.5 392">
        <g>
            <path d="m109.9 476c9.6406-0.019531 17.809-2.8203 24.5-8.3984 6.9766-5.3555 10.477-11.891 10.5-19.602-0.023438-7.7109-3.5234-14.34-10.5-19.879-6.6914-5.3945-14.859-8.1016-24.5-8.1211h-15.398c-9.6406 0.019531-17.922 2.7266-24.852 8.1211-6.7422 5.5391-10.125 12.168-10.148 19.879 0.023438 7.7109 3.4062 14.246 10.148 19.602 6.9297 5.5781 15.211 8.3789 24.852 8.3984h15.398m27.301-215.88c-6.6914-5.3945-14.859-8.1016-24.5-8.1211h-18.199c-9.6406 0.019531-17.922 2.7266-24.852 8.1211-6.7422 5.5391-10.125 12.168-10.148 19.879 0.023438 7.7109 3.4062 14.246 10.148 19.602 6.9297 5.5781 15.211 8.3789 24.852 8.3984h18.199c9.6406-0.019531 17.809-2.8203 24.5-8.3984 6.9766-5.3555 10.477-11.891 10.5-19.602-0.023438-7.7109-3.5234-14.34-10.5-19.879m-2.0977-168c-6.6953-5.3945-14.859-8.1016-24.5-8.1211h-15.402c-9.6406 0.019531-17.922 2.7266-24.848 8.1211-6.7422 5.5391-10.125 12.168-10.152 19.879 0.027343 7.7109 3.4102 14.246 10.152 19.602 6.9258 5.5781 15.207 8.3789 24.848 8.3984h15.402c9.6406-0.019531 17.805-2.8203 24.5-8.3984 6.9727-5.3555 10.473-11.891 10.5-19.602-0.027343-7.7109-3.5273-14.34-10.5-19.879m519.4 336c-6.6914-5.3945-14.859-8.1016-24.5-8.1211h-350c-9.6406 0.019531-17.922 2.7266-24.852 8.1211-6.7422 5.5391-10.125 12.168-10.148 19.879 0.023438 7.7109 3.4062 14.246 10.148 19.602 6.9297 5.5781 15.211 8.3789 24.852 8.3984h350c9.6406-0.019531 17.809-2.8203 24.5-8.3984 6.9766-5.3555 10.477-11.891 10.5-19.602-0.023438-7.7109-3.5234-14.34-10.5-19.879m0-168c-6.6914-5.3945-14.859-8.1016-24.5-8.1211h-350c-9.6406 0.019531-17.922 2.7266-24.852 8.1211-6.7422 5.5391-10.125 12.168-10.148 19.879 0.023438 7.7109 3.4062 14.246 10.148 19.602 6.9297 5.5781 15.211 8.3789 24.852 8.3984h350c9.6406-0.019531 17.809-2.8203 24.5-8.3984 6.9766-5.3555 10.477-11.891 10.5-19.602-0.023438-7.7109-3.5234-14.34-10.5-19.879m0-168c-6.6914-5.3945-14.859-8.1016-24.5-8.1211h-350c-9.6406 0.019531-17.922 2.7266-24.852 8.1211-6.7422 5.5391-10.125 12.168-10.148 19.879 0.023438 7.7109 3.4062 14.246 10.148 19.602 6.9297 5.5781 15.211 8.3789 24.852 8.3984h350c9.6406-0.019531 17.809-2.8203 24.5-8.3984 6.9766-5.3555 10.477-11.891 10.5-19.602-0.023438-7.7109-3.5234-14.34-10.5-19.879z"/>
        </g>
    </symbol>

    <symbol id="success-icon" viewBox="87.5 17.5 525.01 525.01">
        <g>
            <path d="m350 17.5c-69.621 0-136.39 27.656-185.62 76.883-49.227 49.23-76.883 116-76.883 185.62s27.656 136.39 76.883 185.62c49.23 49.227 116 76.883 185.62 76.883s136.39-27.656 185.62-76.883c49.227-49.23 76.883-116 76.883-185.62-0.085938-69.594-27.77-136.31-76.977-185.52-49.211-49.207-115.93-76.891-185.52-76.977zm134.93 187.95-174.82 174.65v0.003906c-2.5 2.6602-5.8359 4.3867-9.4531 4.8984-1.0938 0.21094-2.207 0.32812-3.3242 0.35156-0.94531 0.054688-1.8945-0.0625-2.8008-0.35156-3.6133-0.51172-6.9492-2.2383-9.4492-4.8984l-70-69.824v-0.003906c-3.2773-3.2695-5.1172-7.707-5.1172-12.336s1.8398-9.0664 5.1172-12.336c3.3047-3.2812 7.7695-5.1211 12.426-5.1211s9.1211 1.8398 12.426 5.1211l57.75 57.75 162.4-162.57v-0.003906c3.3047-3.2773 7.7695-5.1172 12.426-5.1172s9.1211 1.8398 12.426 5.1172c3.2773 3.2695 5.1172 7.7109 5.1172 12.34 0 4.6289-1.8398 9.0664-5.1172 12.336z"/>
        </g>
    </symbol>

    <symbol id="error-icon" viewBox="158 88.04 384 383.92">
        <g>
            <path d="m350 88.039c-105.84 0-192 86.082-192 191.92 0 105.92 86.16 192 192 192s192-86.082 192-192c0-105.84-86.16-191.92-192-191.92zm0 319.92c-13.281 0-24-10.719-24-24 0-13.199 10.719-24 24-24 13.199 0 24 10.801 24 24 0 13.281-10.801 24-24 24zm16-71.199c-0.39844 4.082-3.8398 7.1992-8 7.1992h-16c-4.1602 0-7.6016-3.1211-8-7.1992l-16-168c0-18.398 14.32-32.801 32-32.801s32 14.398 32 32z"/>
        </g>
    </symbol>

    <symbol id="close-icon" viewBox="98 27.44 504.08 505.12">
        <g>
            <path d="m593.6 484.4-203.84-204.4 203.84-204.4c11.199-11.199 11.199-28.559 0-39.762-11.199-11.199-28.559-11.199-39.762 0l-203.84 204.4-203.84-203.84c-11.199-11.199-28.559-11.199-39.762 0-11.199 11.199-11.199 28.559 0 39.762l203.84 203.84-203.84 204.4c-11.199 11.199-11.199 28.559 0 39.762 11.199 11.199 28.559 11.199 39.762 0l203.84-204.4 204.4 204.4c11.199 11.199 28.559 11.199 39.762 0 10.641-11.199 10.641-29.121-0.55859-39.762z"/>
        </g>
    </symbol>

    <symbol id="logout-icon" viewBox="99.18 29.15 501.65 496.48">
        <g>
            <path d="m524.3 245.7 16.801 16.801h-97.77c-6.25 0-12.027 3.3359-15.152 8.75-3.1289 5.4141-3.1289 12.086 0 17.5 3.125 5.4141 8.9023 8.75 15.152 8.75h97.766l-16.801 16.801h0.003906c-3.2773 3.2812-5.1172 7.7266-5.1172 12.367 0 4.6367 1.8398 9.0859 5.1172 12.367 3.2812 3.2734 7.7266 5.1172 12.367 5.1172 4.6367 0 9.0859-1.8438 12.367-5.1172l46.668-46.668h-0.003906c1.582-1.6172 2.8477-3.5195 3.7344-5.6016 1.8672-4.3164 1.8672-9.2148 0-13.531-0.88672-2.082-2.1523-3.9844-3.7344-5.6016l-46.668-46.668h0.003906c-4.4688-4.1602-10.781-5.6953-16.66-4.043-5.8789 1.6484-10.473 6.2422-12.121 12.121-1.6484 5.8789-0.11719 12.191 4.0469 16.656z"/>
            <path d="m132.77 487.43 210 38.035v-0.003906c2.4062 0.23047 4.8281 0.23047 7.2344 0 10.848 0.0625 21.27-4.2188 28.941-11.891 7.6719-7.668 11.953-18.094 11.891-28.941v-1.168h99.168c10.691-0.054688 20.938-4.2812 28.562-11.777 7.625-7.4922 12.027-17.664 12.27-28.355v-46.664c0-6.2539-3.3359-12.031-8.75-15.156-5.4141-3.125-12.086-3.125-17.5 0-5.4141 3.125-8.75 8.9023-8.75 15.156v46.668-0.003907c0 1.5469-0.61328 3.0312-1.707 4.125s-2.5781 1.7109-4.125 1.7109h-99.168v-314.77c-0.003906-8.9336-2.9531-17.617-8.3984-24.707-5.4414-7.0859-13.07-12.18-21.699-14.492l-113.4-31.031h242.67c1.5469 0 3.0312 0.61328 4.125 1.707s1.707 2.5781 1.707 4.125v93.332c0 6.2539 3.3359 12.031 8.75 15.156 5.4141 3.125 12.086 3.125 17.5 0 5.4141-3.125 8.75-8.9023 8.75-15.156v-93.332c-0.058593-10.812-4.3828-21.16-12.027-28.805-7.6445-7.6445-17.992-11.969-28.805-12.027h-373.33c-3.8086-0.15625-7.5703 0.90625-10.734 3.0312-4.2109 3.4414-6.6875 8.5664-6.7656 14v401.1c0.011719 9.5664 3.3828 18.824 9.5234 26.156 6.1406 7.3359 14.66 12.281 24.074 13.977z"/>
        </g>
    </symbol>

</svg>